# xmcd CD database file
#
# Track frame offsets:
#	150
#	18742
#	37503
#	53534
#
# Disc length: 959 seconds
#
# Revision: 0
# Processed by: cddbd v1.5.1PL0 Copyright (c) Steve Scherf et al.
# Submitted via: CDex 1.50
#
DISCID=2103bd04
DTITLE=refio＋霜月はるか - 透明シェルター
DYEAR=2004
DGENRE=Anime
TTITLE0=透明シェルター
TTITLE1=はちみつ
TTITLE2=モノクロセカイ
TTITLE3=透明シェルター(off vocal)
EXTD=YEAR: 2004
EXTT0=
EXTT1=
EXTT2=
EXTT3=
PLAYORDER=
